<?xml version="1.0" encoding="utf-8"?>
<!-- Generator: Adobe Illustrator 23.1.0, SVG Export Plug-In . SVG Version: 6.00 Build 0)  -->
<svg version="1.1" id="Слой_1" xmlns="http://www.w3.org/2000/svg" xmlns:xlink="http://www.w3.org/1999/xlink" x="0px" y="0px"
	 width="125px" height="177px" viewBox="0 0 125 177" enable-background="new 0 0 125 177" xml:space="preserve">
<g id="цвета_иконок">
	<g id="промзона_2_">
		<path fill="#8B9513" d="M62.5,153.85869c-1.91304,0-3.73913-0.78259-5.04348-2.08694l-11.21739-11.56522
			c-0.26087-0.26088-0.52174-0.43478-0.95652-0.52174c-11.47826-3.65218-21.82609-11.04349-29.13043-20.95653
			c-7.47826-10.17391-11.3913-22.34782-11.3913-35.04347c0-15.65218,6-30.34783,16.86956-41.3913S47.02173,25.07609,62.5,25.07609
			c15.39131,0,29.91304,6.08696,40.86956,17.21739c10.86955,11.04348,16.86956,25.82608,16.86956,41.3913
			c0,12.7826-4,24.86956-11.47826,35.04347c-7.21739,9.82608-17.56521,17.30434-29.13043,20.95653
			c-0.34782,0.08696-0.69566,0.34781-0.95652,0.52174l-11.21739,11.56522C66.15217,153.07608,64.41304,153.85869,62.5,153.85869z"/>
		<path fill-rule="evenodd" clip-rule="evenodd" fill="#FFFFFF" d="M0.5,83.68478c0-34.6087,27.65217-62.86956,62-62.86956
			s62,28.26087,62,62.86956c0,28-17.99999,51.73914-43.04347,59.91304l-10.86957,11.13043
			c-4.43478,4.6087-11.73913,4.6087-16.17391,0l-10.86956-11.13043C18.5,135.42392,0.5,111.59782,0.5,83.68478z M78.93478,137.25
			c22.43478-7.13043,38.7826-28.43478,38.7826-53.56522c0-30.95652-24.69566-56.08695-55.21739-56.08695
			S7.28261,52.64131,7.28261,83.68478c0,25.13043,16.34782,46.43478,38.7826,53.56522c0.78261,0.26086,1.3913,0.60869,2,1.21738
			l11.21739,11.56522c1.73913,1.8261,4.69565,1.8261,6.52174,0l11.21739-11.56522
			C77.45651,137.85869,78.15217,137.51086,78.93478,137.25z"/>
		
			<radialGradient id="эллипс_1_" cx="69.75339" cy="1877.39868" r="0.20661" fx="69.64358" fy="1877.22375" gradientTransform="matrix(1 0 0 1 0 -1816)" gradientUnits="userSpaceOnUse">
			<stop  offset="0" style="stop-color:#FFFFFF;stop-opacity:0"/>
			<stop  offset="0.4391" style="stop-color:#FDFDFD;stop-opacity:0.04505"/>
			<stop  offset="0.6557" style="stop-color:#F5F5F5;stop-opacity:0.06726"/>
			<stop  offset="0.823" style="stop-color:#E8E8E8;stop-opacity:0.08442"/>
			<stop  offset="0.965" style="stop-color:#D6D6D6;stop-opacity:0.09899"/>
			<stop  offset="0.9749" style="stop-color:#D4D4D4;stop-opacity:0.1"/>
		</radialGradient>
		<path id="эллипс_5_" fill="url(#эллипс_1_)" d="M106.84782,58.64131c0,15.73913-19.91304,28.43478-44.52174,28.43478
			S17.8913,74.29348,17.8913,58.64131s19.91304-28.43478,44.52174-28.43478S106.84782,42.90218,106.84782,58.64131z"/>
	</g>
</g>
<g id="бренды">
	<path id="промзона" fill="#FFFFFF" d="M91.2826,70.03261h-8.43478V63.25c0-3.73913-3.04348-6.78261-6.78262-6.78261
		H35.54348c-3.73913,0-6.78261,3.04348-6.78261,6.78261v30.43478c0,3.73914,3.04348,6.78262,6.78261,6.78262
		c0,5.65217,4.52174,10.1739,10.17391,10.1739s10.17392-4.52174,10.17392-10.1739h20.26087
		c0,5.65217,4.52174,10.1739,10.1739,10.1739c5.65218,0,10.17391-4.52174,10.17391-10.1739h3.3913
		c1.82609,0,3.3913-1.56522,3.3913-3.3913V85.77174c0-1.47826-0.43478-2.86957-1.3913-4.08695l-7.73913-10.34782
		C93.36956,70.46739,92.41304,70.03261,91.2826,70.03261z M45.63043,103.77174c-1.82609,0-3.39131-1.47826-3.39131-3.3913
		c0-1.82609,1.47826-3.39131,3.39131-3.39131c1.82608,0,3.3913,1.47826,3.3913,3.39131S47.54348,103.77174,45.63043,103.77174z
		 M91.2826,75.07609l6.6087,8.43478H82.84782v-8.43478H91.2826z M86.23912,103.77174c-1.82609,0-3.3913-1.47826-3.3913-3.3913
		c0-1.82609,1.47826-3.39131,3.3913-3.39131c1.82609,0,3.3913,1.47826,3.3913,3.39131S88.15217,103.77174,86.23912,103.77174z"/>
</g>
</svg>
